<mxfile host="app.diagrams.net" modified="2021-09-05T15:41:08.500Z" agent="5.0 (X11)" etag="WKRR7JJJlG39HwJbTKzX" version="15.0.6" type="github">
  <diagram id="GAq6AgCpt6X-7BV95Wz3" name="Page-1">
    <mxGraphModel dx="982" dy="509" grid="0" gridSize="10" guides="1" tooltips="1" connect="1" arrows="1" fold="1" page="1" pageScale="1" pageWidth="850" pageHeight="1100" background="#B3B3B3" math="1" shadow="0">
      <root>
        <mxCell id="0" />
        <mxCell id="1" parent="0" />
        <mxCell id="vF_zhapBJWYe_HHOmZVt-4" value="Co_2 Si" style="text;strokeColor=none;align=left;verticalAlign=top;spacingLeft=4;spacingRight=4;overflow=hidden;rotatable=0;points=[[0,0.5],[1,0.5]];portConstraint=eastwest;fontSize=13;fillColor=#ffffff;html=1;" vertex="1" parent="1">
          <mxGeometry x="370" y="450" width="60" height="26" as="geometry" />
        </mxCell>
        <mxCell id="vF_zhapBJWYe_HHOmZVt-5" value="Cr_2 Si&lt;br&gt;" style="text;strokeColor=none;align=left;verticalAlign=top;spacingLeft=4;spacingRight=4;overflow=hidden;rotatable=0;points=[[0,0.5],[1,0.5]];portConstraint=eastwest;fontSize=13;html=1;fillColor=#ffffff;" vertex="1" parent="1">
          <mxGeometry x="90" y="124" width="60" height="26" as="geometry" />
        </mxCell>
        <mxCell id="vF_zhapBJWYe_HHOmZVt-6" value="" style="whiteSpace=wrap;html=1;aspect=fixed;fontSize=13;align=center;gradientDirection=radial;strokeColor=none;fillColor=#FF9933;gradientColor=#FFF2CC;rounded=0;glass=0;sketch=0;" vertex="1" parent="1">
          <mxGeometry x="120" y="160" width="280" height="280" as="geometry" />
        </mxCell>
        <mxCell id="vF_zhapBJWYe_HHOmZVt-10" value="Ni_2 Si" style="text;align=center;verticalAlign=middle;resizable=0;points=[];autosize=1;fontSize=13;fillColor=#ffffff;html=1;" vertex="1" parent="1">
          <mxGeometry x="370" y="127" width="60" height="20" as="geometry" />
        </mxCell>
        <mxCell id="vF_zhapBJWYe_HHOmZVt-11" value="" style="shape=waypoint;sketch=0;size=6;pointerEvents=1;points=[];fillColor=none;resizable=0;rotatable=0;perimeter=centerPerimeter;snapToPoint=1;fontSize=13;align=center;strokeColor=#FF3333;" vertex="1" parent="1">
          <mxGeometry x="380" y="280" width="40" height="40" as="geometry" />
        </mxCell>
        <mxCell id="vF_zhapBJWYe_HHOmZVt-12" value="" style="shape=waypoint;sketch=0;size=6;pointerEvents=1;points=[];fillColor=none;resizable=0;rotatable=0;perimeter=centerPerimeter;snapToPoint=1;fontSize=13;fontColor=#EA6B66;align=center;strokeWidth=1;strokeColor=#FF3333;" vertex="1" parent="1">
          <mxGeometry x="100" y="280" width="40" height="40" as="geometry" />
        </mxCell>
        <mxCell id="vF_zhapBJWYe_HHOmZVt-13" value="" style="shape=waypoint;sketch=0;size=6;pointerEvents=1;points=[];resizable=0;rotatable=0;perimeter=centerPerimeter;snapToPoint=1;fontSize=13;align=center;fillColor=none;strokeColor=#FF3333;" vertex="1" parent="1">
          <mxGeometry x="380" y="140" width="40" height="40" as="geometry" />
        </mxCell>
        <mxCell id="vF_zhapBJWYe_HHOmZVt-14" value="" style="shape=waypoint;sketch=0;size=6;pointerEvents=1;points=[];fillColor=none;resizable=0;rotatable=0;perimeter=centerPerimeter;snapToPoint=1;fontSize=13;fontColor=#EA6B66;align=center;strokeColor=#FF3333;" vertex="1" parent="1">
          <mxGeometry x="240" y="420" width="40" height="40" as="geometry" />
        </mxCell>
        <mxCell id="vF_zhapBJWYe_HHOmZVt-15" value="(Ni_2 Si)_y1+(Co_2 Si)_y2" style="text;align=center;verticalAlign=middle;resizable=0;points=[];autosize=1;strokeColor=none;fontSize=13;rotation=90;html=1;fillColor=#ffffff;" vertex="1" parent="1">
          <mxGeometry x="336" y="290" width="170" height="20" as="geometry" />
        </mxCell>
        <mxCell id="vF_zhapBJWYe_HHOmZVt-16" value="(Fe2 Si)y1 + (Cr2Si)y2" style="text;align=center;verticalAlign=middle;resizable=0;points=[];autosize=1;strokeColor=none;fontSize=13;rotation=270;fillColor=#ffffff;html=1;" vertex="1" parent="1">
          <mxGeometry x="34" y="290" width="140" height="20" as="geometry" />
        </mxCell>
        <mxCell id="vF_zhapBJWYe_HHOmZVt-17" value="(Fe2Si)x1 + (Co2Si)x2" style="text;align=center;verticalAlign=middle;resizable=0;points=[];autosize=1;strokeColor=none;fontSize=13;fontColor=#000000;fillColor=#ffffff;html=1;" vertex="1" parent="1">
          <mxGeometry x="186" y="453" width="140" height="20" as="geometry" />
        </mxCell>
        <mxCell id="vF_zhapBJWYe_HHOmZVt-18" value="&lt;div&gt;Fe2Si&lt;/div&gt;" style="text;html=1;align=center;verticalAlign=middle;resizable=0;points=[];autosize=1;strokeColor=none;fontSize=13;fontColor=#000000;fillColor=#ffffff;" vertex="1" parent="1">
          <mxGeometry x="98" y="453" width="44" height="20" as="geometry" />
        </mxCell>
        <mxCell id="vF_zhapBJWYe_HHOmZVt-19" value="" style="shape=waypoint;sketch=0;size=6;pointerEvents=1;points=[];resizable=0;rotatable=0;perimeter=centerPerimeter;snapToPoint=1;fontSize=13;fontColor=#000000;align=center;html=1;fillColor=none;strokeColor=#FF3333;" vertex="1" parent="1">
          <mxGeometry x="100" y="140" width="40" height="40" as="geometry" />
        </mxCell>
        <mxCell id="vF_zhapBJWYe_HHOmZVt-20" value="" style="shape=waypoint;sketch=0;size=6;pointerEvents=1;points=[];fillColor=none;resizable=0;rotatable=0;perimeter=centerPerimeter;snapToPoint=1;fontSize=13;fontColor=#000000;strokeColor=#FF3333;align=center;html=1;" vertex="1" parent="1">
          <mxGeometry x="380" y="420" width="40" height="40" as="geometry" />
        </mxCell>
        <mxCell id="vF_zhapBJWYe_HHOmZVt-21" value="" style="shape=waypoint;sketch=0;size=6;pointerEvents=1;points=[];fillColor=none;resizable=0;rotatable=0;perimeter=centerPerimeter;snapToPoint=1;fontSize=13;fontColor=#000000;strokeColor=#FF3333;align=center;html=1;" vertex="1" parent="1">
          <mxGeometry x="100" y="420" width="40" height="40" as="geometry" />
        </mxCell>
      </root>
    </mxGraphModel>
  </diagram>
</mxfile>
